<svg xmlns="http://www.w3.org/2000/svg" viewBox="0 0 64 64" width="64" height="64"><g transform="translate(-2 -2)"><g transform="translate(4 4)"><path fill-rule="evenodd" fill="#3FB950" d="M41,6 H52 V58 H24 A12,12 0 0 1 12,46 V33 A12,12 0 0 1 24,21 H41 Z M28,32 H36 A5,5 0 0 1 41,37 V42 A5,5 0 0 1 36,47 H28 A5,5 0 0 1 23,42 V37 A5,5 0 0 1 28,32 Z"/></g><path fill-rule="evenodd" fill="#FAFAFA" d="M41,6 H52 V58 H24 A12,12 0 0 1 12,46 V33 A12,12 0 0 1 24,21 H41 Z M28,32 H36 A5,5 0 0 1 41,37 V42 A5,5 0 0 1 36,47 H28 A5,5 0 0 1 23,42 V37 A5,5 0 0 1 28,32 Z"/></g></svg>